<svg xmlns="http://www.w3.org/2000/svg" width="256" height="256" id="cat"><path fill="maroon" fill-rule="evenodd" stroke="#000" stroke-linecap="round" stroke-linejoin="round" stroke-width="18" d="M71.243 138.332a18 18 0 0 1 17.995-17.98 18 18 0 0 1 18.004 17.97 18 18 0 0 1-17.945 18.03 18 18 0 0 1-18.053-17.92" paint-order="stroke fill markers"></path><path fill="#f9f9f9" fill-rule="evenodd" stroke="#000" stroke-linecap="square" stroke-linejoin="round" stroke-width="18" d="M157.779 75.085v50.238h.01c0 .247-.007.492-.01.737v.551h-.023c-.776 13.67-13.843 24.475-29.958 24.475-16.114 0-29.182-10.805-29.958-24.475h-.05V75.085l29.995 22.543z" paint-order="stroke fill markers"></path><path fill="none" stroke="#000" stroke-linecap="round" stroke-width="10" d="M144.936 116.494h15.58m-44.964 0h15.579"></path><path fill="#fff" fill-rule="evenodd" stroke="#000" stroke-linecap="round" stroke-linejoin="round" stroke-width="18" d="M92.908 156.192c-.1-.572-.155-1.156-.155-1.75 0-6.787 6.755-12.25 15.146-12.25h3.709c8.39 0 15.145 5.463 15.145 12.25 0 .594-.055 1.178-.155 1.75zm43.39 0c-.101-.572-.156-1.156-.156-1.75 0-6.787 6.755-12.25 15.146-12.25h3.709c8.39 0 15.145 5.463 15.145 12.25 0 .594-.055 1.178-.155 1.75z" paint-order="stroke fill markers"></path></svg>